<svg width="133" height="23" viewBox="0 0 133 23" fill="none" xmlns="http://www.w3.org/2000/svg">
<g clip-path="url(#clip0_1_2)">
<rect x="-46" y="-57.5564" width="295" height="150" fill="white"/>
<path d="M11.568 12.608H2.4V14.4H10.624C10 15.792 9.184 17.504 8.48 18.88L10.496 19.44C11.488 17.408 12.64 14.928 13.424 12.96L11.904 12.512L11.568 12.608ZM5.12 9.312C6.272 8.288 7.248 7.2 7.936 6.208C8.64 7.2 9.68 8.288 10.848 9.312H5.12ZM6.896 4.352C5.696 6.336 3.12 8.912 0.416 10.4C0.832 10.8 1.376 11.472 1.616 11.92C2.656 11.296 3.664 10.576 4.576 9.792V11.072H11.36V9.744C12.336 10.56 13.376 11.296 14.384 11.888C14.736 11.312 15.152 10.704 15.632 10.224C13.136 9.056 10.512 6.8 8.8 4.352H6.896ZM19.28 19.104L20.992 17.632C20.192 16.64 18.64 15.056 17.504 14.128L15.84 15.568C16.944 16.528 18.304 17.904 19.28 19.104ZM34.768 4.8L34.16 5.072C34.56 5.616 35.136 6.56 35.456 7.216L36.08 6.912C35.744 6.304 35.136 5.328 34.768 4.8ZM36.736 4.4L36.112 4.672C36.544 5.2 37.072 6.128 37.44 6.784L38.064 6.512C37.712 5.872 37.104 4.912 36.736 4.4ZM36.096 7.616L35.472 7.216C35.248 7.28 35.056 7.28 34.848 7.28H26.464C25.936 7.28 25.456 7.232 25.04 7.184V8.112C25.44 8.096 25.872 8.064 26.448 8.064H35.072C34.848 9.696 34.016 12.176 32.848 13.68C31.472 15.456 29.68 16.8 26.624 17.6L27.328 18.368C30.304 17.44 32.08 16.032 33.552 14.176C34.768 12.608 35.584 9.984 35.92 8.24C35.968 7.936 36.016 7.792 36.096 7.616ZM49.92 6.96C49.92 6.336 50.432 5.808 51.056 5.808C51.68 5.808 52.192 6.336 52.192 6.96C52.192 7.584 51.68 8.096 51.056 8.096C50.432 8.096 49.92 7.584 49.92 6.96ZM49.344 6.96C49.344 7.904 50.096 8.672 51.056 8.672C52 8.672 52.784 7.904 52.784 6.96C52.784 6 52 5.232 51.056 5.232C50.096 5.232 49.344 6 49.344 6.96ZM42.128 6.144H41.152C41.216 6.464 41.232 6.832 41.232 7.232V16.08C41.232 17.344 41.856 17.792 42.992 17.984C43.632 18.096 44.576 18.128 45.472 18.128C47.2 18.128 49.6 17.984 50.912 17.792V16.848C49.568 17.2 47.2 17.344 45.504 17.344C44.672 17.344 43.744 17.28 43.216 17.184C42.416 17.024 42.064 16.8 42.064 15.904V12.048C43.952 11.552 46.848 10.704 48.768 9.904C49.216 9.728 49.696 9.504 50.064 9.344L49.68 8.496C49.328 8.736 48.912 8.944 48.464 9.152C46.656 9.936 43.92 10.768 42.064 11.2V7.232C42.064 6.784 42.096 6.464 42.128 6.144ZM56.784 9.36V10.208C57.008 10.208 57.888 10.176 58.224 10.176H64.512V13.264H58.336C57.824 13.264 57.344 13.216 57.088 13.2V14.048C57.376 14.032 57.824 14.016 58.352 14.016H64.512V17.296H57.856C57.312 17.296 56.832 17.264 56.576 17.232V18.096C56.832 18.096 57.344 18.064 57.872 18.064H64.512C64.512 18.336 64.512 18.576 64.496 18.736H65.328C65.328 18.512 65.312 18.256 65.312 18V10.048C65.312 9.776 65.312 9.552 65.328 9.408C65.136 9.408 64.832 9.424 64.464 9.424H58.224C57.888 9.424 57.024 9.408 56.784 9.36ZM71.824 6.544L71.264 7.136C72.464 7.92 74.432 9.632 75.232 10.432L75.856 9.792C75.008 8.96 72.96 7.296 71.824 6.544ZM70.816 17.296L71.36 18.144C74.272 17.568 76.272 16.528 77.856 15.504C80.192 14 81.888 11.84 82.912 9.968L82.416 9.104C81.552 10.976 79.68 13.312 77.376 14.8C75.872 15.776 73.776 16.848 70.816 17.296ZM93.84 14.272V16.72H89.344V14.272H93.84ZM94.56 17.392V13.6H88.624V18.432H89.344V17.392H94.56ZM89.616 9.04C89.456 8.512 89.088 7.712 88.704 7.088H94.336C94.08 7.712 93.68 8.512 93.36 9.04H89.616ZM98.368 7.088V6.368H91.872V4.672H91.104V6.368H84.704V7.088H87.968L87.904 7.104C88.256 7.696 88.608 8.464 88.784 9.04H85.472V19.152H86.224V9.744H89.472C89.28 11.424 88.608 12.272 86.464 12.736C86.608 12.848 86.816 13.12 86.896 13.296C89.2 12.736 89.968 11.744 90.208 9.744H92.48V11.68C92.48 12.48 92.704 12.656 93.68 12.656H95.568C96.32 12.656 96.528 12.352 96.608 11.104C96.4 11.072 96.112 10.96 95.968 10.848C95.92 11.888 95.856 12 95.472 12H93.728C93.248 12 93.184 11.968 93.184 11.68V9.744H96.96V18.048C96.96 18.288 96.88 18.368 96.608 18.384C96.304 18.4 95.328 18.416 94.144 18.384C94.256 18.608 94.384 18.96 94.432 19.168C95.776 19.168 96.656 19.152 97.12 19.04C97.568 18.896 97.696 18.608 97.696 18.032V9.04H94.208C94.544 8.496 94.912 7.776 95.232 7.088H98.368ZM111.728 17.824H104.016V14.208H111.728V17.824ZM108.032 8.016H107.264V13.488H103.264V19.2H104.016V18.528H111.728V19.152H112.496V13.488H108.032V10.864H113.648V10.16H108.032V8.016ZM107.552 6.864V4.672H106.768V6.864H100.768V11.056C100.768 13.328 100.64 16.48 99.344 18.752C99.52 18.848 99.872 19.056 100 19.184C101.328 16.816 101.536 13.424 101.536 11.056V7.6H113.872V6.864H107.552ZM128.976 5.664H124.96V6.384H128.976V5.664ZM121.104 10.032H118.448V10.736H124.496V10.032H121.84V7.552H124.176V6.848H121.84V4.688H121.104V6.848H118.8V7.552H121.104V10.032ZM117.456 4.688C116.848 5.824 115.632 7.152 114.512 7.984C114.656 8.128 114.88 8.4 114.992 8.56C116.16 7.632 117.44 6.208 118.192 4.944L117.456 4.688ZM117.984 7.808C117.12 9.6 115.696 11.344 114.256 12.496C114.416 12.64 114.672 12.976 114.768 13.12C115.328 12.64 115.904 12.08 116.448 11.44V19.184H117.168V10.528C117.744 9.744 118.288 8.896 118.688 8.032L117.984 7.808ZM124.864 16.336C123.856 16.48 122.816 16.624 121.84 16.752V14H124.384V13.296H121.84V11.12H121.104V13.296H118.544V14H121.104V16.848C119.952 16.992 118.928 17.12 118.112 17.216L118.224 17.952C119.968 17.712 122.464 17.376 124.88 17.04L124.864 16.336ZM129.168 9.952H124.784V10.672H126.752V18.112C126.752 18.336 126.688 18.4 126.432 18.416C126.176 18.432 125.376 18.432 124.352 18.4C124.464 18.64 124.576 18.96 124.624 19.184C125.808 19.184 126.56 19.184 126.976 19.04C127.376 18.896 127.504 18.672 127.504 18.112V10.672H129.168V9.952Z" fill="black"/>
</g>
<defs>
<clipPath id="clip0_1_2">
<rect width="132.524" height="22.4435" fill="white"/>
</clipPath>
</defs>
</svg>
