<svg width="133" height="23" viewBox="0 0 133 23" fill="none" xmlns="http://www.w3.org/2000/svg">
<g clip-path="url(#clip0_101_2)">
<rect x="-46" y="-57.5564" width="295" height="150" fill="white"/>
<path d="M10.2416 4.02977H7.59499V17H10.0488V11.7944C10.0488 10.3046 9.85602 8.67451 9.73332 7.27232H9.82096L11.1355 10.0592L14.8864 17H17.5155V4.02977H15.0616V9.20033C15.0616 10.6726 15.2544 12.3903 15.3947 13.7399H15.307L14.01 10.9355L10.2416 4.02977ZM23.7381 17.2454C26.1919 17.2454 28.4529 15.3349 28.4529 12.1099C28.4529 8.83226 26.1919 6.9393 23.7381 6.9393C21.2843 6.9393 19.0232 8.83226 19.0232 12.1099C19.0232 15.3349 21.2843 17.2454 23.7381 17.2454ZM23.7381 15.1421C22.406 15.1421 21.6523 13.9502 21.6523 12.1099C21.6523 10.2169 22.406 9.04259 23.7381 9.04259C25.0702 9.04259 25.8238 10.2169 25.8238 12.1099C25.8238 13.9502 25.0702 15.1421 23.7381 15.1421ZM31.3971 7.18469H28.8206L31.3621 17H34.3067L35.3057 12.7233C35.516 11.8119 35.6563 10.918 35.8491 9.86637H35.9367C36.1295 10.918 36.2872 11.7944 36.4976 12.7233L37.5317 17H40.5639L42.9827 7.18469H40.599L39.5298 12.0398C39.337 13.0213 39.2318 13.9152 39.039 14.8967H38.9514C38.7411 13.9152 38.5658 13.0213 38.3379 12.0398L37.111 7.18469H34.815L33.6406 12.0398C33.3777 12.9687 33.22 13.9152 33.0272 14.8967H32.9571C32.7643 13.9152 32.6591 13.0213 32.4663 12.0398L31.3971 7.18469ZM46.2127 14.774H43.6537L42.935 18.4372H44.9156L46.2127 14.774ZM54.4975 4.22257H50.9745V17H54.7604C57.6349 17 59.5278 15.738 59.5278 13.2667C59.5278 11.5139 58.4762 10.4798 56.7936 10.1994V10.1118C58.0731 9.70862 58.7566 8.65698 58.7566 7.32491C58.7566 5.16904 57.074 4.22257 54.4975 4.22257ZM54.1645 9.79626H52.0261V5.08141H54.2696C56.5306 5.08141 57.705 5.71239 57.705 7.4476C57.705 8.90237 56.6884 9.79626 54.1645 9.79626ZM54.515 16.1236H52.0261V10.6376H54.515C57.0565 10.6376 58.4937 11.4438 58.4937 13.2667C58.4937 15.2473 56.9864 16.1236 54.515 16.1236ZM64.2707 17.2279C65.6028 17.2279 66.5142 16.5092 67.4257 15.4576H67.4783L67.5659 17H68.4247V7.65792H67.4081V14.4936C66.3565 15.7556 65.5678 16.3164 64.4986 16.3164C63.0263 16.3164 62.4654 15.4225 62.4654 13.5121V7.65792H61.4488V13.6347C61.4488 16.036 62.2902 17.2279 64.2707 17.2279ZM72.243 7.65792H71.4016V21.1715H72.4182V17.8063L72.4007 16.0886C73.3647 16.8423 74.2937 17.2279 75.1525 17.2279C77.3434 17.2279 79.2714 15.3524 79.2714 12.18C79.2714 9.3055 77.9919 7.41254 75.5206 7.41254C74.3813 7.41254 73.3121 8.09611 72.4007 8.7972H72.3656L72.243 7.65792ZM75.0649 16.334C74.3813 16.334 73.4173 16.036 72.4182 15.1947V9.79626C73.54 8.81473 74.4339 8.30644 75.3278 8.30644C77.431 8.30644 78.1847 9.93648 78.1847 12.18C78.1847 14.6864 76.8877 16.334 75.0649 16.334ZM83.7842 17.1052L82.2418 21.2066H83.3284L88.0959 7.65792H87.0618L85.1513 13.3718C84.8884 14.1956 84.5904 15.1246 84.31 15.9659H84.2223C83.8893 15.1246 83.5388 14.1956 83.2408 13.3718L81.0674 7.65792H79.9632L83.7842 17.1052ZM93.1303 17.2279C94.48 17.2279 95.3563 16.7897 96.11 16.3164L95.7244 15.5628C95.0233 16.0535 94.2346 16.369 93.2355 16.369C91.2199 16.369 89.8703 14.7916 89.8177 12.4955H96.443C96.4781 12.2676 96.4956 12.0222 96.4956 11.7593C96.4956 9.00753 95.146 7.41254 92.885 7.41254C90.7642 7.41254 88.7836 9.3055 88.7836 12.3377C88.7836 15.405 90.7291 17.2279 93.1303 17.2279ZM95.5666 11.6892H89.8177C90.0105 9.53335 91.3776 8.28891 92.9025 8.28891C94.5325 8.28891 95.5666 9.42819 95.5666 11.6892ZM101.913 17.2279C104.174 17.2279 106.137 15.4401 106.137 12.3377C106.137 9.21786 104.174 7.41254 101.913 7.41254C99.652 7.41254 97.689 9.21786 97.689 12.3377C97.689 15.4401 99.652 17.2279 101.913 17.2279ZM101.913 16.3515C100.09 16.3515 98.7581 14.7214 98.7581 12.3377C98.7581 9.95401 100.09 8.30644 101.913 8.30644C103.736 8.30644 105.085 9.95401 105.085 12.3377C105.085 14.7214 103.736 16.3515 101.913 16.3515ZM109.183 7.65792H108.341V17H109.358V10.0066C110.462 8.88484 111.198 8.32396 112.302 8.32396C113.775 8.32396 114.353 9.1828 114.353 11.1634V17H115.37V11.0232C115.37 8.62193 114.511 7.41254 112.53 7.41254C111.251 7.41254 110.322 8.14869 109.34 9.07764H109.305L109.183 7.65792ZM121.272 21.4519C124.007 21.4519 125.759 19.9095 125.759 18.2795C125.759 16.7897 124.76 16.1236 122.64 16.1236H120.676C119.327 16.1236 118.924 15.6329 118.924 14.9493C118.924 14.3358 119.257 13.9853 119.66 13.6523C120.081 13.9152 120.659 14.0379 121.167 14.0379C123.008 14.0379 124.462 12.6532 124.462 10.7427C124.462 9.76121 124.059 8.99 123.498 8.49924H125.602V7.65792H122.412C122.114 7.53523 121.676 7.41254 121.167 7.41254C119.327 7.41254 117.82 8.77968 117.82 10.7252C117.82 11.847 118.398 12.7759 119.011 13.2667V13.3368C118.591 13.6523 117.977 14.2657 117.977 15.072C117.977 15.8257 118.345 16.2989 118.819 16.5793V16.667C117.96 17.2454 117.416 18.0692 117.416 18.893C117.416 20.5055 118.941 21.4519 121.272 21.4519ZM121.167 13.2667C119.923 13.2667 118.836 12.2501 118.836 10.7252C118.836 9.1828 119.888 8.23633 121.167 8.23633C122.429 8.23633 123.481 9.1828 123.481 10.7252C123.481 12.2501 122.377 13.2667 121.167 13.2667ZM121.395 20.6807C119.485 20.6807 118.38 19.9095 118.38 18.7703C118.38 18.1393 118.713 17.4557 119.537 16.8948C120.01 17.0175 120.501 17.0526 120.712 17.0526H122.622C124.024 17.0526 124.743 17.4207 124.743 18.4197C124.743 19.5415 123.428 20.6807 121.395 20.6807Z" fill="black"/>
</g>
<defs>
<clipPath id="clip0_101_2">
<rect width="132.524" height="22.4435" fill="white"/>
</clipPath>
</defs>
</svg>
