<svg width="133" height="23" viewBox="0 0 133 23" fill="none" xmlns="http://www.w3.org/2000/svg">
<path d="M14.127 19.0638V2.92112H11.8134V19.0638H14.127ZM6.99341 7.2679V6.374H10.3236V4.46352H1.2795V6.374H4.64475V7.2679C4.64475 10.0197 3.34772 12.9818 0.630984 14.1912L1.94554 16.0316C3.83849 15.1727 5.13551 13.42 5.85413 11.2992C6.57275 13.2798 7.83472 14.8047 9.72768 15.6284L10.9896 13.8056C8.29043 12.6838 6.99341 9.897 6.99341 7.2679ZM30.6189 11.2992V9.45882H28.5331C28.9012 7.58339 28.9012 6.25131 28.9012 4.93676V3.63974H17.8064V5.48011H26.6227C26.6227 6.60186 26.5701 7.8463 26.2371 9.45882H16.0011V11.2992H30.6189ZM28.8311 12.9818H17.7188V18.871H28.8311V12.9818ZM26.5701 17.0657H19.9973V14.7871H26.5701V17.0657ZM34.1055 15.3305H31.5465L30.8279 18.9937H32.8084L34.1055 15.3305ZM39.8664 10.4929H50.2425V3.85007H49.3136V6.21626H40.7953V3.85007H39.8664V10.4929ZM40.7953 6.98746H49.3136V9.7042H40.7953V6.98746ZM45.4751 13.3849H52.118V12.5962H37.9734V13.3849H44.5462V18.7834H45.4751V13.3849ZM61.9845 9.65162H64.9992V12.8766H65.9281V3.21908H64.9992V6.16368H61.9845V6.95241H64.9992V8.86289H61.9845V9.65162ZM62.6505 11.194L62.598 10.4929C61.8267 10.5981 61.0205 10.6682 60.1967 10.7033V5.26978H61.9494V4.48105H53.7642V5.26978H55.4818V10.8785C54.7106 10.8961 53.992 10.8961 53.3085 10.8961L53.4487 11.7198C56.0077 11.7198 59.5832 11.7023 62.6505 11.194ZM56.3933 10.861V5.26978H59.2853V10.7558C58.3038 10.8259 57.3748 10.8435 56.3933 10.861ZM60.8803 13.2447C57.7078 13.2447 55.7973 14.2263 55.7973 15.979C55.7973 17.7493 57.7078 18.7308 60.8803 18.7308C64.1053 18.7308 65.9983 17.7493 65.9983 15.979C65.9983 14.2263 64.1053 13.2447 60.8803 13.2447ZM60.8803 17.9771C58.3388 17.9771 56.7263 17.241 56.7263 15.979C56.7263 14.717 58.3388 13.9984 60.8803 13.9984C63.4393 13.9984 65.0868 14.7696 65.0868 15.979C65.0868 17.2234 63.4393 17.9771 60.8803 17.9771ZM84.1321 18.7834V3.21908H83.2031V18.7834H84.1321ZM76.7706 8.30201V5.67291H80.6967V4.86665H72.0032V5.67291H75.8592V8.30201C75.8592 11.0363 73.5631 13.9633 71.565 14.9975L72.1434 15.7511C73.8611 14.8222 75.6313 12.7014 76.3149 10.3527C77.016 12.5962 78.8388 14.5242 80.574 15.3655L81.1349 14.6294C79.0316 13.7004 76.7706 11.0012 76.7706 8.30201ZM98.5908 10.5981H101.325V9.80936H98.5908V3.20155H97.6618V18.7658H98.5908V10.5981ZM95.9091 5.7956H91.8252V3.3593H90.8963V5.7956H86.6546V6.58433H95.9091V5.7956ZM91.387 8.12674C89.2136 8.12674 87.6888 9.59904 87.6888 11.6322C87.6888 13.6829 89.2136 15.1201 91.387 15.1201C93.5604 15.1201 95.0853 13.6829 95.0853 11.6322C95.0853 9.59904 93.5604 8.12674 91.387 8.12674ZM91.387 14.3314C89.757 14.3314 88.5651 13.1571 88.5651 11.6322C88.5651 10.0898 89.757 8.933 91.387 8.933C93.0171 8.933 94.2089 10.0898 94.2089 11.6322C94.2089 13.1571 93.0171 14.3314 91.387 14.3314ZM116.432 8.28448V7.47823H113.996V3.20155H113.067V12.8065H113.996V8.28448H116.432ZM110.385 11.5446L110.894 10.8084C108.773 10.0022 106.915 8.00405 106.915 5.74302V3.97276H106.021V5.70796C106.021 8.2319 104.251 10.3352 102.042 11.2291L102.533 11.9828C104.373 11.2291 105.863 9.68667 106.512 7.67103C107.125 9.44129 108.668 10.8435 110.385 11.5446ZM109.088 13.2798C105.916 13.2798 104.075 14.2613 104.075 16.014C104.075 17.7668 105.916 18.7308 109.088 18.7308C112.261 18.7308 114.119 17.7668 114.119 16.014C114.119 14.2613 112.261 13.2798 109.088 13.2798ZM109.088 17.9771C106.599 17.9771 104.987 17.2059 104.987 16.014C104.987 14.8047 106.599 14.0335 109.088 14.0335C111.595 14.0335 113.207 14.8047 113.207 16.014C113.207 17.2059 111.595 17.9771 109.088 17.9771ZM129.086 10.5455H131.785V9.73925H129.086V3.21908H128.157V18.7834H129.086V10.5455ZM125.142 4.93676H118.131V5.72549H124.231C123.968 9.56398 121.742 12.8065 117.482 14.9273L118.008 15.6635C122.951 13.1921 125.142 9.17838 125.142 4.93676Z" fill="black"/>
</svg>
